<svg width="32" height="34" viewBox="0 0 32 34" fill="none" xmlns="http://www.w3.org/2000/svg">
<g id="material-symbols:edit-rounded">
<path id="Vector" d="M25.7333 13.005L20.0667 7.23003L21.9333 5.30503C22.4445 4.77795 23.0725 4.5144 23.8173 4.5144C24.5622 4.5144 25.1898 4.77795 25.7 5.30503L27.5667 7.23003C28.0778 7.75711 28.3444 8.39328 28.3667 9.13853C28.3889 9.88378 28.1445 10.5195 27.6333 11.0457L25.7333 13.005ZM5.33334 29.6082C4.95556 29.6082 4.63867 29.4762 4.38267 29.2122C4.12667 28.9482 3.99912 28.6218 4 28.2332V24.3488C4 24.1654 4.03334 23.9876 4.1 23.8153C4.16667 23.6429 4.26667 23.4885 4.4 23.3519L18.1333 9.1894L23.8 15.0332L10.0667 29.1957C9.93334 29.3332 9.78356 29.4363 9.61734 29.505C9.45112 29.5738 9.27867 29.6082 9.1 29.6082H5.33334Z" fill="#1D84B5"/>
</g>
</svg>
