<svg width="42" height="43" viewBox="0 0 42 43" fill="none" xmlns="http://www.w3.org/2000/svg">
<g id="material-symbols:search-rounded">
<path id="Vector" d="M33.075 35.8099L23.275 26.0099C22.4 26.7099 21.3937 27.2641 20.2562 27.6724C19.1187 28.0807 17.9083 28.2849 16.625 28.2849C13.4458 28.2849 10.7555 27.1836 8.554 24.9809C6.3525 22.7782 5.25117 20.0879 5.25 16.9099C5.25 13.7307 6.35133 11.0404 8.554 8.83891C10.7567 6.63741 13.447 5.53608 16.625 5.53491C19.8042 5.53491 22.4945 6.63625 24.696 8.83891C26.8975 11.0416 27.9988 13.7319 28 16.9099C28 18.1932 27.7958 19.4037 27.3875 20.5412C26.9792 21.6787 26.425 22.6849 25.725 23.5599L35.5688 33.4037C35.8896 33.7245 36.05 34.1182 36.05 34.5849C36.05 35.0516 35.875 35.4599 35.525 35.8099C35.2042 36.1307 34.7958 36.2912 34.3 36.2912C33.8042 36.2912 33.3958 36.1307 33.075 35.8099ZM16.625 24.7849C18.8125 24.7849 20.6722 24.019 22.204 22.4872C23.7358 20.9553 24.5012 19.0962 24.5 16.9099C24.5 14.7224 23.7341 12.8627 22.2023 11.3309C20.6704 9.79908 18.8113 9.03375 16.625 9.03491C14.4375 9.03491 12.5778 9.80083 11.046 11.3327C9.51417 12.8645 8.74883 14.7236 8.75 16.9099C8.75 19.0974 9.51592 20.9571 11.0478 22.4889C12.5796 24.0207 14.4387 24.7861 16.625 24.7849Z" fill="#1F1F1F"/>
</g>
</svg>
