<svg width="34" height="35" viewBox="0 0 34 35" fill="none" xmlns="http://www.w3.org/2000/svg">
<g id="material-symbols:delete-rounded">
<path id="Vector" d="M9.91669 29.9832C9.13753 29.9832 8.47027 29.7055 7.91494 29.1502C7.35961 28.5948 7.08241 27.928 7.08336 27.1498V8.73316C6.68197 8.73316 6.34528 8.59716 6.07328 8.32516C5.80128 8.05316 5.66575 7.71694 5.66669 7.31649C5.66669 6.9151 5.80269 6.57841 6.07469 6.30641C6.34669 6.03441 6.68291 5.89888 7.08336 5.89983H12.75C12.75 5.49844 12.886 5.16174 13.158 4.88974C13.43 4.61774 13.7662 4.48221 14.1667 4.48316H19.8334C20.2347 4.48316 20.5714 4.61916 20.8434 4.89116C21.1154 5.16316 21.251 5.49938 21.25 5.89983H26.9167C27.3181 5.89983 27.6548 6.03583 27.9268 6.30783C28.1988 6.57983 28.3343 6.91605 28.3334 7.31649C28.3334 7.71788 28.1974 8.05458 27.9254 8.32658C27.6534 8.59858 27.3171 8.7341 26.9167 8.73316V27.1498C26.9167 27.929 26.639 28.5962 26.0837 29.1516C25.5284 29.7069 24.8616 29.9841 24.0834 29.9832H9.91669ZM12.75 22.8998C12.75 23.3012 12.886 23.6379 13.158 23.9099C13.43 24.1819 13.7662 24.3174 14.1667 24.3165C14.5681 24.3165 14.9048 24.1805 15.1768 23.9085C15.4488 23.6365 15.5843 23.3003 15.5834 22.8998V12.9832C15.5834 12.5818 15.4474 12.2451 15.1754 11.9731C14.9034 11.7011 14.5671 11.5655 14.1667 11.5665C13.7653 11.5665 13.4286 11.7025 13.1566 11.9745C12.8846 12.2465 12.7491 12.5827 12.75 12.9832V22.8998ZM18.4167 22.8998C18.4167 23.3012 18.5527 23.6379 18.8247 23.9099C19.0967 24.1819 19.4329 24.3174 19.8334 24.3165C20.2347 24.3165 20.5714 24.1805 20.8434 23.9085C21.1154 23.6365 21.251 23.3003 21.25 22.8998V12.9832C21.25 12.5818 21.114 12.2451 20.842 11.9731C20.57 11.7011 20.2338 11.5655 19.8334 11.5665C19.432 11.5665 19.0953 11.7025 18.8233 11.9745C18.5513 12.2465 18.4157 12.5827 18.4167 12.9832V22.8998Z" fill="#FF3333"/>
</g>
</svg>
